HIERARCHY
ROOT chen_peiyu:Solving:Hips
{
	OFFSET 0.000000 0.000000 0.000000
	CHANNELS 6 Xposition Yposition Zposition Xrotation Yrotation Zrotation
	JOINT chen_peiyu:Solving:Spine
	{
		OFFSET 0.000000 -11.210929 2.546455
		CHANNELS 6 Xposition Yposition Zposition Xrotation Yrotation Zrotation
		JOINT chen_peiyu:Solving:Spine1
		{
			OFFSET 0.000000 -8.581483 1.513147
			CHANNELS 6 Xposition Yposition Zposition Xrotation Yrotation Zrotation
			JOINT chen_peiyu:Solving:Spine2
			{
				OFFSET 0.000000 -8.680708 0.759466
				CHANNELS 6 Xposition Yposition Zposition Xrotation Yrotation Zrotation
				JOINT chen_peiyu:Solving:Spine3
				{
					OFFSET 0.000000 -8.713865 0.000000
					CHANNELS 6 Xposition Yposition Zposition Xrotation Yrotation Zrotation
					JOINT chen_peiyu:Solving:Neck
					{
						OFFSET 0.000000 -11.203541 -1.120352
						CHANNELS 6 Xposition Yposition Zposition Xrotation Yrotation Zrotation
						JOINT chen_peiyu:Solving:Neck1
						{
							OFFSET 0.000000 -7.996979 -0.699643
							CHANNELS 6 Xposition Yposition Zposition Xrotation Yrotation Zrotation
							JOINT chen_peiyu:Solving:Head
							{
								OFFSET 0.000000 -7.905571 -1.393964
								CHANNELS 6 Xposition Yposition Zposition Xrotation Yrotation Zrotation
								JOINT chen_peiyu:Solving:HeadEnd
								{
									OFFSET 0.000000 -9.728081 0.000003
									CHANNELS 6 Xposition Yposition Zposition Xrotation Yrotation Zrotation
									End Site
									{
										OFFSET 0.000000 -9.728081 0.000002
									}
								}
							}
						}
					}
					JOINT chen_peiyu:Solving:RightShoulder
					{
						OFFSET 0.000000 -8.002529 -5.397107
						CHANNELS 6 Xposition Yposition Zposition Xrotation Yrotation Zrotation
						JOINT chen_peiyu:Solving:RightArm
						{
							OFFSET -20.031555 -0.000008 0.000000
							CHANNELS 6 Xposition Yposition Zposition Xrotation Yrotation Zrotation
							JOINT chen_peiyu:Solving:RightForeArm
							{
								OFFSET -29.298958 -0.000008 0.000000
								CHANNELS 6 Xposition Yposition Zposition Xrotation Yrotation Zrotation
								JOINT chen_peiyu:Solving:RightHand
								{
									OFFSET -23.063095 -0.000008 0.000000
									CHANNELS 6 Xposition Yposition Zposition Xrotation Yrotation Zrotation
									JOINT chen_peiyu:Solving:RightHandThumb1
									{
										OFFSET -3.309830 2.925671 -2.461148
										CHANNELS 6 Xposition Yposition Zposition Xrotation Yrotation Zrotation
										End Site
										{
											OFFSET -4.885818 0.000000 -4.930992
										}
									}
									JOINT chen_peiyu:Solving:RightHandMiddle1
									{
										OFFSET -8.826195 -0.000004 0.056578
										CHANNELS 6 Xposition Yposition Zposition Xrotation Yrotation Zrotation
										End Site
										{
											OFFSET -6.941605 -0.000004 0.000000
										}
									}
								}
							}
						}
					}
					JOINT chen_peiyu:Solving:LeftShoulder
					{
						OFFSET 0.000000 -8.002529 -5.397107
						CHANNELS 6 Xposition Yposition Zposition Xrotation Yrotation Zrotation
						JOINT chen_peiyu:Solving:LeftArm
						{
							OFFSET 20.031555 -0.000008 0.000000
							CHANNELS 6 Xposition Yposition Zposition Xrotation Yrotation Zrotation
							JOINT chen_peiyu:Solving:LeftForeArm
							{
								OFFSET 29.298958 -0.000008 0.000000
								CHANNELS 6 Xposition Yposition Zposition Xrotation Yrotation Zrotation
								JOINT chen_peiyu:Solving:LeftHand
								{
									OFFSET 23.063095 -0.000008 0.000000
									CHANNELS 6 Xposition Yposition Zposition Xrotation Yrotation Zrotation
									JOINT chen_peiyu:Solving:LeftHandThumb1
									{
										OFFSET 3.309830 2.925671 -2.461148
										CHANNELS 6 Xposition Yposition Zposition Xrotation Yrotation Zrotation
										End Site
										{
											OFFSET 4.885818 0.000000 -4.930992
										}
									}
									JOINT chen_peiyu:Solving:LeftHandMiddle1
									{
										OFFSET 8.826195 -0.000004 0.056578
										CHANNELS 6 Xposition Yposition Zposition Xrotation Yrotation Zrotation
										End Site
										{
											OFFSET 6.941605 -0.000004 0.000000
										}
									}
								}
							}
						}
					}
				}
			}
		}
	}
	JOINT chen_peiyu:Solving:RightUpLeg
	{
		OFFSET -8.842906 0.000000 0.000000
		CHANNELS 6 Xposition Yposition Zposition Xrotation Yrotation Zrotation
		JOINT chen_peiyu:Solving:RightLeg
		{
			OFFSET 0.000000 42.445980 -0.000006
			CHANNELS 6 Xposition Yposition Zposition Xrotation Yrotation Zrotation
			JOINT chen_peiyu:Solving:RightFoot
			{
				OFFSET 0.000000 37.362904 -0.000006
				CHANNELS 6 Xposition Yposition Zposition Xrotation Yrotation Zrotation
				JOINT chen_peiyu:Solving:RightForeFoot
				{
					OFFSET 0.000000 3.537643 -0.000000
					CHANNELS 6 Xposition Yposition Zposition Xrotation Yrotation Zrotation
					JOINT chen_peiyu:Solving:RightToeBase
					{
						OFFSET 0.000000 0.000000 -13.854536
						CHANNELS 6 Xposition Yposition Zposition Xrotation Yrotation Zrotation
						JOINT chen_peiyu:Solving:RightToeBaseEnd
						{
							OFFSET 0.000000 0.000000 -3.949363
							CHANNELS 6 Xposition Yposition Zposition Xrotation Yrotation Zrotation
							End Site
							{
								OFFSET 0.000000 -3.949364 0.000000
							}
						}
					}
				}
			}
		}
	}
	JOINT chen_peiyu:Solving:LeftUpLeg
	{
		OFFSET 8.842906 0.000000 0.000000
		CHANNELS 6 Xposition Yposition Zposition Xrotation Yrotation Zrotation
		JOINT chen_peiyu:Solving:LeftLeg
		{
			OFFSET 0.000000 42.445980 -0.000006
			CHANNELS 6 Xposition Yposition Zposition Xrotation Yrotation Zrotation
			JOINT chen_peiyu:Solving:LeftFoot
			{
				OFFSET 0.000000 37.362904 -0.000006
				CHANNELS 6 Xposition Yposition Zposition Xrotation Yrotation Zrotation
				JOINT chen_peiyu:Solving:LeftForeFoot
				{
					OFFSET 0.000000 3.537643 -0.000000
					CHANNELS 6 Xposition Yposition Zposition Xrotation Yrotation Zrotation
					JOINT chen_peiyu:Solving:LeftToeBase
					{
						OFFSET 0.000000 0.000000 -13.854536
						CHANNELS 6 Xposition Yposition Zposition Xrotation Yrotation Zrotation
						JOINT chen_peiyu:Solving:LeftToeBaseEnd
						{
							OFFSET 0.000000 0.000000 -4.185185
							CHANNELS 6 Xposition Yposition Zposition Xrotation Yrotation Zrotation
							End Site
							{
								OFFSET 0.000000 -4.185188 0.000000
							}
						}
					}
				}
			}
		}
	}
}
MOTION
Frames: 4
Frame Time: 0.041667
2.419883 -100.749016 -91.991501 84.213678 -3.010089 0.878823 -0.000000 -11.210951 2.546453 13.856462 0.560497 2.122063 0.000000 -8.581464 1.513139 -0.633672 -0.141075 0.295665 -0.000002 -8.680710 0.759467 -6.274684 -1.548682 -0.403043 0.000000 -8.713877 -0.000012 -6.388688 -0.294528 -0.197423 0.000002 -11.203501 -1.120357 -0.973213 0.652347 1.923398 -0.000004 -7.996997 -0.699635 4.591948 2.826520 -1.572286 0.000001 -7.905610 -1.393948 14.991806 0.411696 -2.809039 0.000000 -9.728065 -0.000027 -0.000002 -0.000000 0.000000 -0.000000 -8.002522 -5.397115 -0.000002 10.321278 2.091607 -20.031559 -0.000030 0.000016 10.889998 -27.668944 -83.143702 -29.298958 -0.000008 -0.000010 14.837802 -14.630043 3.828109 -23.063080 0.000003 0.000016 -0.687548 6.750163 5.829608 -3.309855 2.925683 -2.461151 0.000001 0.000005 -0.000003 -8.826224 0.000004 0.056558 0.000000 0.000002 0.000001 -0.000001 -8.002510 -5.397114 -0.000006 -12.172485 -12.740882 20.031557 -0.000025 -0.000019 -2.913661 27.495152 96.037733 29.298981 -0.000009 -0.000001 15.103365 11.870403 -3.177532 23.063059 0.000005 0.000033 0.391975 -1.699453 12.990263 3.309830 2.925678 -2.461147 -0.000008 -0.000007 -0.000000 8.826231 -0.000003 0.056581 -0.000001 0.000001 -0.000003 -8.842908 -0.000022 -0.000012 7.452145 16.550011 2.346065 -0.000006 42.445980 0.000023 4.918874 0.000001 -0.000001 0.000006 37.362904 -0.000009 16.541817 -4.559632 19.432595 0.000003 3.537659 -0.000007 -0.000001 0.000002 0.000000 -0.000004 -0.000000 -13.854526 -18.756804 -0.000004 0.000003 0.000002 0.000000 -3.949364 -0.000001 0.000000 -0.000002 8.842902 -0.000034 -0.000002 7.741800 -1.377475 -0.041861 -0.000000 42.445969 -0.000026 4.919239 -0.000001 0.000000 -0.000003 37.362904 -0.000039 9.640111 -10.769174 -6.490832 0.000001 3.537636 0.000003 -0.000000 0.000000 0.000000 0.000010 0.000004 -13.854542 1.849575 0.000000 -0.000002 0.000004 -0.000008 -4.185192 0.000001 0.000001 -0.000000 
2.522779 -100.716766 -91.986443 84.198925 -3.115520 0.848035 0.000000 -11.210943 2.546472 13.847843 0.560458 2.182757 0.000002 -8.581508 1.513145 -0.637687 -0.143509 0.299680 -0.000000 -8.680729 0.759462 -6.276200 -1.590193 -0.389675 -0.000004 -8.713871 -0.000002 -6.377173 -0.301485 -0.188178 -0.000000 -11.203518 -1.120342 -0.951727 0.678369 1.936436 -0.000004 -7.997009 -0.699646 4.602454 2.922132 -1.605759 -0.000001 -7.905590 -1.393964 15.011366 0.421815 -2.832800 0.000000 -9.728073 -0.000000 -0.000001 0.000000 0.000000 -0.000001 -8.002495 -5.397090 -0.000006 10.317999 2.040201 -20.031555 -0.000002 -0.000017 10.799169 -28.022145 -83.040477 -29.298958 -0.000009 -0.000001 14.665118 -14.672822 3.792458 -23.063108 0.000004 -0.000023 -0.678281 6.840337 5.676477 -3.309813 2.925660 -2.461145 0.000005 0.000003 0.000002 -8.826202 -0.000010 0.056575 0.000002 -0.000002 0.000000 0.000000 -8.002480 -5.397089 -0.000010 -12.163129 -12.752638 20.031569 -0.000038 -0.000021 -3.101474 28.089074 96.129230 29.298956 -0.000004 0.000005 15.009320 12.106234 -3.218512 23.063086 -0.000005 0.000008 0.392140 -1.671029 13.208834 3.309807 2.925670 -2.461149 -0.000004 -0.000005 -0.000000 8.826180 -0.000004 0.056584 -0.000005 -0.000000 -0.000000 -8.842908 0.000002 0.000010 7.458144 16.670357 2.440354 0.000001 42.446007 -0.000007 4.959593 0.000002 -0.000000 0.000002 37.362888 -0.000034 16.512196 -4.584232 19.386261 0.000004 3.537645 -0.000010 0.000003 -0.000001 -0.000004 0.000000 -0.000000 -13.854537 -18.775997 -0.000004 0.000001 -0.000000 -0.000000 -3.949363 -0.000001 -0.000000 -0.000003 8.842909 -0.000019 0.000028 7.722023 -1.263252 0.041269 0.000001 42.445972 -0.000011 5.027837 0.000000 0.000000 -0.000002 37.362911 -0.000035 9.604980 -10.710948 -6.532221 -0.000007 3.537636 0.000022 0.000003 -0.000001 -0.000001 0.000004 0.000006 -13.854544 1.818047 0.000000 0.000000 -0.000002 0.000000 -4.185214 0.000000 0.000000 -0.000000 
2.625929 -100.679901 -91.978889 84.172909 -3.238308 0.827966 -0.000000 -11.210950 2.546428 13.848680 0.559104 2.231473 0.000001 -8.581457 1.513134 -0.644809 -0.145455 0.303410 -0.000001 -8.680708 0.759467 -6.274789 -1.613628 -0.385548 -0.000000 -8.713871 0.000019 -6.374940 -0.309270 -0.158550 0.000002 -11.203541 -1.120364 -0.918877 0.718911 1.915347 -0.000003 -7.996994 -0.699643 4.608533 3.030875 -1.612704 -0.000002 -7.905564 -1.393967 15.023988 0.429495 -2.846614 -0.000001 -9.728088 0.000035 -0.000002 -0.000000 -0.000000 -0.000000 -8.002556 -5.397127 -0.000002 10.300734 1.991741 -20.031565 -0.000009 0.000021 10.692334 -28.352628 -82.923032 -29.298967 -0.000004 -0.000005 14.540481 -14.636530 3.749820 -23.063072 0.000010 -0.000017 -0.678575 6.846245 5.674163 -3.309849 2.925671 -2.461154 -0.000003 -0.000002 0.000005 -8.826208 -0.000001 0.056588 -0.000006 0.000001 0.000003 -0.000000 -8.002537 -5.397126 -0.000006 -12.153511 -12.773465 20.031555 0.000001 -0.000019 -3.269176 28.482075 96.206998 29.298944 -0.000002 -0.000011 15.045083 12.297088 -3.276509 23.063059 0.000003 0.000003 0.389560 -1.655480 13.243966 3.309800 2.925678 -2.461149 0.000001 0.000005 0.000001 8.826223 -0.000003 0.056572 -0.000000 -0.000002 -0.000002 -8.842909 -0.000021 -0.000035 7.486015 16.782914 2.518790 -0.000001 42.445972 -0.000026 5.001550 0.000001 0.000001 0.000010 37.362900 -0.000003 16.474339 -4.576961 19.332975 0.000003 3.537644 -0.000008 0.000001 -0.000001 -0.000003 0.000000 0.000012 -13.854525 -18.776637 -0.000004 0.000001 0.000003 0.000000 -3.949368 -0.000001 -0.000000 -0.000002 8.842905 -0.000014 -0.000029 7.729273 -1.087608 0.110535 0.000000 42.445965 -0.000005 5.100094 0.000001 -0.000000 -0.000003 37.362907 -0.000021 9.541399 -10.800598 -6.502913 -0.000003 3.537643 -0.000015 -0.000002 0.000001 0.000000 0.000000 -0.000005 -13.854556 1.828320 0.000003 0.000003 -0.000002 0.000007 -4.185213 0.000000 0.000000 -0.000000 
2.731123 -100.643166 -91.971512 84.145759 -3.361329 0.801973 0.000001 -11.210945 2.546449 13.852217 0.564383 2.295501 0.000000 -8.581493 1.513144 -0.645560 -0.148733 0.311964 0.000000 -8.680708 0.759451 -6.281559 -1.653568 -0.385846 0.000000 -8.713884 0.000023 -6.380679 -0.322616 -0.143904 -0.000003 -11.203560 -1.120397 -0.884615 0.778933 1.912323 0.000000 -7.996982 -0.699652 4.606860 3.136078 -1.626614 -0.000002 -7.905567 -1.393951 15.030176 0.438184 -2.857942 -0.000000 -9.728088 -0.000022 -0.000002 0.000000 0.000000 -0.000002 -8.002529 -5.397146 -0.000002 10.307214 1.954788 -20.031559 0.000007 0.000010 10.567567 -28.602047 -82.785417 -29.298981 -0.000004 -0.000016 14.556842 -14.585510 3.741451 -23.063099 -0.000006 -0.000005 -0.692042 6.914215 5.729756 -3.309804 2.925661 -2.461151 0.000003 -0.000005 0.000003 -8.826213 -0.000008 0.056565 -0.000000 -0.000002 0.000006 -0.000003 -8.002514 -5.397136 -0.000005 -12.143643 -12.785968 20.031540 -0.000022 -0.000012 -3.427804 28.944077 96.259502 29.298965 -0.000011 -0.000006 14.987100 12.520068 -3.321420 23.063072 -0.000002 0.000017 0.403404 -1.733821 13.100178 3.309800 2.925683 -2.461141 0.000004 -0.000002 0.000001 8.826202 0.000011 0.056591 -0.000006 0.000002 0.000000 -8.842907 -0.000013 0.000009 7.505779 16.894514 2.605967 -0.000001 42.445961 -0.000006 5.057623 0.000002 -0.000001 0.000003 37.362888 -0.000001 16.434060 -4.567003 19.279980 0.000002 3.537643 0.000012 -0.000003 0.000001 0.000001 0.000002 0.000022 -13.854530 -18.794165 -0.000005 0.000001 -0.000005 -0.000001 -3.949363 -0.000001 0.000000 0.000001 8.842908 -0.000026 0.000020 7.744006 -0.962218 0.182773 0.000003 42.445976 0.000018 5.165007 -0.000002 -0.000000 -0.000003 37.362881 -0.000016 9.479171 -10.782626 -6.519126 -0.000002 3.537636 0.000008 0.000001 -0.000003 -0.000002 -0.000003 -0.000006 -13.854557 1.870336 0.000000 0.000001 -0.000003 0.000000 -4.185185 0.000002 0.000001 -0.000000 
